<svg width="1688" height="1306" viewBox="0 0 1688 1306" fill="none" xmlns="http://www.w3.org/2000/svg">
<g style="mix-blend-mode:multiply" opacity="0.015">
<path fill-rule="evenodd" clip-rule="evenodd" d="M793.001 669.968C757.982 643.75 698.464 589.425 661.305 558.664C629.155 532.041 518.999 435.173 495.228 418.444C437.532 377.88 410.482 448.934 394.316 481.314L2.68907 1251.45C-4.55147 1265.88 -14.8883 1278.11 -12.7025 1299.43C5.01177 1308.74 30.604 1305.41 55.7865 1305.46C131.38 1305.55 113.529 1310.54 174.003 1191.14L460.209 628.595C467.359 614.744 479.472 587.221 487.487 577.777C498.143 581.51 737.399 788.782 766.042 811.853C840.77 872.069 855.343 808.3 921.327 704.911L1199.84 264.372C1210.36 247.823 1227.34 215.938 1239.87 202.222L1511.27 734.007C1522.75 756.763 1543.33 807.67 1560.32 817.789C1576.03 827.143 1671.98 826.018 1687.23 818.194C1691.6 802.454 1676.21 780.733 1669.47 767.421C1661.14 751.051 1652.35 734.277 1644.24 717.593L1493.56 419.883C1458.54 354.045 1428.21 288.207 1393.56 222.009L1293.28 24.3604C1269.78 -13.8652 1220.79 -3.20699 1199.29 29.4422C1178.43 61.1469 1160.27 90.828 1141.09 121.633L852.018 579.081C841.499 595.676 833.074 609.257 823.011 625.222C814.222 639.118 802.291 660.749 793.001 669.968Z" fill="#1D1D1B"/>
</g>
</svg>
