<svg width="72" height="72" viewBox="0 0 72 72" fill="none" xmlns="http://www.w3.org/2000/svg">
<g clip-path="url(#clip0)">
<path d="M70.8006 3.14169e-08C70.8005 3.14169e-08 70.8002 3.14169e-08 70.8 3.14169e-08H1.2C0.53745 -0.000149969 0.00015 0.53685 0 1.1994C0 1.19955 0 1.19985 0 1.2V25.2H2.4V2.4H69.6V28.8H27.6V31.2H70.8C71.4626 31.2002 71.9999 30.6632 72 30.0006C72 30.0005 72 30.0002 72 30V1.2C72.0002 0.53745 71.4632 0.000150031 70.8006 3.14169e-08Z" fill="#E30613"/>
<path d="M63.6 6H39.6V8.4H63.6V6Z" fill="#E30613"/>
<path d="M67.1999 13.2H43.2V15.6H67.1999V13.2Z" fill="#E30613"/>
<path d="M62.4 20.3999H38.4V22.7999H62.4V20.3999Z" fill="#E30613"/>
<path d="M38.3043 10.3461C37.4827 8.3714 35.2159 7.4366 33.2413 8.25815C33.2076 8.27225 33.174 8.28665 33.1407 8.30165L23.4105 13.3491C23.7942 12.5538 23.9956 11.6829 24 10.8C24 7.4864 21.3136 4.80005 18 4.80005C14.6863 4.80005 12 7.4864 12 10.8C12.0045 12.1025 12.4369 13.3674 13.2307 14.4H13.1808C9.7746 14.4228 6.73395 16.5404 5.5314 19.7274L2.328 30.7688C1.5654 32.7497 2.553 34.9739 4.53405 35.7365C5.43735 36.0842 6.4386 36.0783 7.33785 35.72C8.37105 35.3037 9.17505 34.4631 9.5451 33.4125L10.8 29.4188V46.7862C9.7674 45.9926 8.50245 45.5601 7.2 45.5555C3.8913 45.5505 1.20495 48.2288 1.2 51.5376C1.1976 53.1581 1.8516 54.7103 3.01305 55.8404C1.16985 56.7821 0.00720003 58.6745 3.14169e-08 60.7442V70.8C-0.000149969 71.4626 0.53685 71.9999 1.1994 72C1.19955 72 1.19985 72 1.2 72H13.2C13.8625 72.0002 14.3998 71.4632 14.4 70.8006C14.4 70.8005 14.4 70.8002 14.4 70.8V60.7442C14.3941 59.0433 13.6039 57.4404 12.2586 56.4H21.3415C19.996 57.4404 19.2059 59.0433 19.2001 60.7442V70.8C19.2 71.4626 19.737 71.9999 20.3995 72C20.3997 72 20.4 72 20.4002 72H32.4002C33.0627 72.0002 33.6 71.4632 33.6001 70.8006C33.6001 70.8005 33.6001 70.8002 33.6001 70.8V60.7442C33.5929 58.6745 32.4303 56.7821 30.5871 55.8404C32.9563 53.5278 33.0024 49.7324 30.6898 47.3631C29.2657 45.9041 27.1977 45.2688 25.2001 45.6768V21.1289L36.2163 15.4089C38.1909 14.5875 39.1257 12.3207 38.3043 10.3461ZM18 7.20005C19.9882 7.20005 21.6 8.8118 21.6 10.8C21.6 12.7883 19.9882 14.4 18 14.4C16.0126 14.3979 14.4021 12.7874 14.4 10.8C14.4 8.8118 16.0117 7.20005 18 7.20005ZM7.2 47.9555C9.18825 47.9555 10.8 49.5672 10.8 51.5555C10.8 53.5437 9.18825 55.1555 7.2 55.1555C5.21175 55.1555 3.6 53.5437 3.6 51.5555C3.6021 49.5681 5.21265 47.9577 7.2 47.9555ZM12 69.6H2.4V60.7442C2.4024 59.0085 3.80895 57.6021 5.54475 57.6H8.85525C10.5909 57.6021 11.9976 59.0085 12 60.7442V69.6ZM31.2 60.7442V69.6H21.6V60.7442C21.6024 59.0085 23.0089 57.6021 24.7447 57.6H28.0552C29.791 57.6021 31.1976 59.0085 31.2 60.7442ZM26.4 47.9555C28.3873 47.9576 29.9979 49.5681 30 51.5555C30 53.5437 28.3882 55.1555 26.4 55.1555C24.4117 55.1555 22.8 53.5437 22.8 51.5555C22.8 49.5672 24.4117 47.9555 26.4 47.9555ZM36.1084 12.348C35.9478 12.7602 35.618 13.0838 35.2026 13.2363L23.4475 19.3347C23.0497 19.5411 22.8 19.952 22.8 20.4V46.7862C20.5522 48.4482 19.7736 51.4562 20.9328 54H19.2V33.6H16.8V54H12.6672C13.0086 53.2455 13.1884 52.428 13.1955 51.6H13.2V21.6C13.1998 20.9372 12.6624 20.4 11.9997 20.4002C11.4757 20.4003 11.0124 20.7404 10.8552 21.2403L7.272 32.6426C7.0005 33.3914 6.17325 33.7784 5.42445 33.5067C5.37195 33.4877 5.3205 33.4656 5.2704 33.4406C4.57815 33.0828 4.2843 32.2476 4.6002 31.5351L7.80345 20.4938C8.6673 18.2753 10.7998 16.8104 13.1806 16.8H21.6774C21.8697 16.8003 22.0593 16.754 22.23 16.6653L34.1568 10.4744C34.8723 10.1759 35.697 10.4813 36.0453 11.174C36.2299 11.5391 36.2529 11.9651 36.1084 12.348Z" fill="#E30613"/>
<path d="M49.787 55.8401C52.1604 53.5277 52.2099 49.7289 49.8975 47.3555C47.5851 44.982 43.7864 44.9325 41.4129 47.2449C39.0395 49.5573 38.99 53.3561 41.3024 55.7295C41.3388 55.7669 41.3757 55.8038 41.4131 55.8401C39.57 56.7818 38.4072 58.6741 38.4 60.7438V70.7997C38.3999 71.4622 38.9369 71.9995 39.5994 71.9997C39.5996 71.9997 39.5999 71.9997 39.6 71.9997H51.6C52.2626 71.9998 52.7999 71.4628 52.8 70.8003C52.8 70.8001 52.8 70.7998 52.8 70.7997V60.7438C52.7928 58.6741 51.6302 56.7818 49.787 55.8401ZM45.6 47.9552C47.5883 47.9552 49.2 49.5669 49.2 51.5552C49.2 53.5434 47.5883 55.1552 45.6 55.1552C43.6118 55.1552 42 53.5434 42 51.5552C42.0021 49.5678 43.6127 47.9574 45.6 47.9552ZM50.4 69.5997H40.8V60.7438C40.8024 59.0082 42.209 57.6018 43.9448 57.5997H47.2553C48.9909 57.6018 50.3976 59.0082 50.4 60.7438V69.5997Z" fill="#E30613"/>
<path d="M68.9869 55.8401C71.3604 53.5277 71.4099 49.7289 69.0975 47.3555C66.7851 44.982 62.9863 44.9325 60.6129 47.2449C58.2394 49.5573 58.1899 53.3561 60.5023 55.7295C60.5388 55.7669 60.5757 55.8038 60.613 55.8401C58.77 56.7818 57.6072 58.6741 57.6 60.7438V70.7997C57.5998 71.4622 58.1368 71.9995 58.7994 71.9997C58.7995 71.9997 58.7998 71.9997 58.8 71.9997H70.8C71.4625 71.9998 71.9998 71.4628 72 70.8003C72 70.8001 72 70.7998 72 70.7997V60.7438C71.9928 58.6741 70.8301 56.7818 68.9869 55.8401ZM64.8 47.9552C66.7882 47.9552 68.4 49.5669 68.4 51.5552C68.4 53.5434 66.7882 55.1552 64.8 55.1552C62.8117 55.1552 61.2 53.5434 61.2 51.5552C61.2021 49.5678 62.8126 47.9574 64.8 47.9552ZM69.6 69.5997H60V60.7438C60.0024 59.0082 61.4089 57.6018 63.1447 57.5997H66.4552C68.1909 57.6018 69.5976 59.0082 69.6 60.7438V69.5997Z" fill="#E30613"/>
</g>
<defs>
<clipPath id="clip0">
<rect width="72" height="72" fill="white"/>
</clipPath>
</defs>
</svg>
