<svg version="1.1" id="Слой_1" xmlns="http://www.w3.org/2000/svg" x="0" y="0" viewBox="0 0 259.52 63.3" style="enable-background:new 0 0 259.52 63.3" xml:space="preserve"><style>.st0{fill:#04165d}</style><path class="st0" d="M200.43 42.2h7.42V17.15h-7.42V42.2zm-19.14-6.08c-3.17 0-5.97-2.22-5.97-6.47 0-4.03 2.71-6.46 5.99-6.46.28 0 .56.02.84.06l5.16.38-.03 5.5c.01.17.02.35.02.52 0 .21-.01.41-.02.61-.27 3.37-2.77 5.86-5.99 5.86zm-1.81 6.87c3.66 0 6.61-1.45 8.13-3.99v3.2h7.07V17.15h-4.64c-3.31-.14-6.33-.52-9.59-.75l-.15-.01c-.29-.02-.58-.03-.87-.03-6.59 0-11.48 6.01-11.48 13.29 0 7.34 4.81 13.34 11.53 13.34zm-19.2-.79h5.54v-6.14h-3.94c-1.56 0-2.82-.84-2.82-3.28v-9.29h6.77v-6.34h-6.77V8.36l-7.43.04v8.75h-4.81l2.41 6.34h2.4v8.95c-.01 8.66 4.96 9.76 8.65 9.76zm-31.31 0h-7.38V17.15h4.64c2.69-.11 5.3-.57 7.98-.76 7.56-.5 12.35 6.2 12.35 13.27 0 4.17.01 8.33.01 12.5h-7.38v-12.5c.15-4.73-2.83-6.99-6.83-6.4l-3.41.38c.02 6.18.02 12.37.02 18.56zm-20.03-25.05h7.38V42.2h-4.64c-2.69.11-5.3.57-7.98.76-7.56.5-12.35-6.2-12.35-13.27 0-4.17-.01-8.33-.01-12.5h7.38v12.5c-.15 4.73 2.83 6.99 6.83 6.4l3.41-.38c-.02-6.18-.02-12.37-.02-18.56zM75.29 36.12c-3.51 0-5.99-2.63-5.99-6.44 0-3.79 2.48-6.44 5.99-6.44 3.51 0 5.99 2.66 5.99 6.44 0 3.81-2.49 6.44-5.99 6.44zm-.08 6.87c7.95 0 13.44-5.95 13.44-13.31 0-7.31-5.49-13.31-13.42-13.31-7.88 0-13.32 6.02-13.32 13.31.01 7.33 5.47 13.31 13.3 13.31zM16 42.2h7.88l4.3-21.33 7.49 16.08h4.19l7.58-16.01 4.41 21.27h7.84L51.71 8.38h-5.32c-1.53 0-2.22 1.52-2.22 1.52L37.77 24v.02c-2.09-4.71-4.18-9.41-6.27-14.12-.01-.02-.68-1.53-2.2-1.53h-5.42L16 42.2zm205.16 0h-7.38V17.15h4.64c2.69-.11 5.3-.57 7.98-.76 7.56-.5 12.35 6.2 12.35 13.27 0 4.17.01 8.33.01 12.5h-7.38v-12.5c.15-4.73-2.83-6.99-6.83-6.4l-3.41.38c.03 6.18.02 12.37.02 18.56z"/><path d="M203.79 3.47c-.22 0-.45.19-.56.56-.36 1.26-1.06 2.32-2.02 3.08-.52.32-1.1.55-1.75.7-.75.21-.74.89 0 1.1.94.27 1.77.73 2.45 1.35.6.67 1.05 1.49 1.32 2.42.11.38.33.56.56.56.22 0 .45-.19.56-.56.27-.93.72-1.75 1.32-2.42.67-.61 1.5-1.08 2.45-1.35.74-.21.75-.89 0-1.1a6.05 6.05 0 0 1-1.75-.7c-.96-.75-1.66-1.81-2.02-3.08-.11-.37-.33-.56-.56-.56z" style="fill-rule:evenodd;clip-rule:evenodd;fill:#fdc600"/><path class="st0" d="M80.33 50.88h1.07c.2 0 .3.1.3.31v7.5c0 .21-.1.31-.3.31h-1.07c-.21 0-.31-.1-.31-.31v-7.5c0-.21.1-.31.31-.31zm5.62.31c0-.21.1-.31.31-.31h6.12c.21 0 .31.1.31.31v.97c0 .2-.1.3-.31.3h-2.22v6.24c0 .21-.1.31-.31.31h-1.06c-.21 0-.31-.1-.31-.31v-6.24h-2.22c-.21 0-.31-.1-.31-.3v-.97zm16.37 3.63.08-.05c-.51-.61-.77-1.22-.77-1.84 0-.66.21-1.19.63-1.59.42-.4.98-.6 1.67-.6.67 0 1.22.18 1.63.54.41.36.62.83.62 1.42 0 .91-.43 1.61-1.3 2.09l-.3.16.94.99c.05-.15.08-.27.09-.35.15-.58.37-.99.66-1.24.29-.25.72-.37 1.27-.37h.3c.21 0 .31.1.31.31v.77c0 .21-.1.31-.31.31h-.25c-.37 0-.61.21-.71.63l-.05.23c-.05.23-.14.5-.25.79l1.53 1.59c.07.08.1.15.1.21 0 .02-.01.05-.03.1-.02.05-.09.08-.22.08h-1.28c-.15 0-.28-.05-.38-.16l-.54-.55c-.57.55-1.29.83-2.17.83-.82 0-1.46-.19-1.92-.56-.46-.38-.68-.9-.68-1.58 0-.94.44-1.66 1.33-2.16zm.22 1.94c0 .32.11.57.32.75.21.18.52.26.91.26.41 0 .76-.16 1.05-.47l-1.55-1.61-.1.06c-.42.23-.63.57-.63 1.01zm1.02-2.86.15.15.3-.16c.54-.3.81-.66.81-1.07 0-.24-.08-.43-.24-.58-.16-.15-.37-.22-.63-.22s-.47.08-.63.25c-.16.17-.24.39-.24.67.01.3.17.63.48.96zm13.14-2.71c0-.21.1-.31.31-.31h2.69c1.23 0 2.21.37 2.96 1.12.75.74 1.12 1.72 1.12 2.93 0 1.23-.39 2.21-1.16 2.96S120.85 59 119.58 59h-2.57c-.21 0-.31-.1-.31-.31v-7.5zm1.68 1.26v4.97h1.16c.74 0 1.33-.23 1.78-.69s.68-1.06.68-1.81c0-.74-.22-1.33-.67-1.79s-1.04-.68-1.78-.68h-1.17zM128.49 50.88h4.91c.2 0 .3.1.3.31v.97c0 .2-.1.3-.3.3h-3.54v1.74h2.95c.21 0 .31.1.31.31v.88c0 .2-.1.3-.31.3h-2.95v1.75h3.68c.21 0 .31.1.31.31v.96c0 .21-.1.31-.31.31h-5.05c-.21 0-.31-.1-.31-.31v-7.5c0-.23.11-.33.31-.33zM137.97 56.51l.96-.15c.02-.01.05-.01.07-.01.13 0 .23.09.29.26.09.33.29.59.6.78.31.19.68.29 1.13.29.42 0 .76-.09 1.01-.27.25-.18.37-.42.37-.71 0-.43-.28-.71-.84-.83l-1.66-.38c-.65-.15-1.15-.43-1.5-.83-.35-.4-.52-.89-.52-1.47 0-.74.28-1.33.85-1.78.57-.45 1.3-.68 2.21-.68.72 0 1.33.17 1.83.5.5.33.85.77 1.05 1.32.02.05.02.09.02.14 0 .12-.08.21-.23.25l-.92.28c-.04.02-.07.02-.1.02-.12 0-.21-.08-.26-.23-.11-.25-.29-.45-.54-.6-.25-.15-.55-.22-.89-.22-.38 0-.69.09-.93.27-.24.18-.36.41-.36.7 0 .41.29.69.86.83l1.65.4c.65.16 1.15.44 1.49.85.34.4.51.88.51 1.44 0 .74-.29 1.34-.87 1.79-.58.45-1.34.67-2.28.67-.89 0-1.62-.21-2.2-.63s-.93-.97-1.06-1.65c-.01-.03-.01-.06-.01-.09 0-.14.09-.23.27-.26zm10.83-5.63h1.07c.2 0 .3.1.3.31v7.5c0 .21-.1.31-.3.31h-1.07c-.21 0-.31-.1-.31-.31v-7.5c0-.21.1-.31.31-.31zm6.88 1.02c.74-.77 1.71-1.16 2.92-1.16.86 0 1.61.2 2.26.61.64.41 1.09.95 1.33 1.62.02.05.02.09.02.13 0 .12-.07.21-.22.26l-.97.34c-.05.02-.09.02-.13.02-.11 0-.2-.07-.26-.2-.17-.35-.43-.63-.78-.85a2.27 2.27 0 0 0-1.18-.32c-.69 0-1.25.23-1.68.7-.43.47-.64 1.09-.64 1.85 0 .78.22 1.4.66 1.87.44.47 1.01.71 1.71.71.57 0 1.03-.16 1.4-.48.36-.32.57-.75.6-1.28h-1.97c-.21 0-.31-.1-.31-.31v-.78c0-.2.1-.3.31-.3h3.37c.21 0 .31.1.31.3v4.04c0 .21-.1.31-.31.31h-.58c-.18 0-.29-.08-.34-.24l-.31-.82c-.53.8-1.37 1.2-2.53 1.2-1.13 0-2.04-.38-2.74-1.16-.7-.77-1.05-1.78-1.05-3.02-.01-1.24.37-2.26 1.11-3.04zm11.71-1.02h1.42c.15 0 .28.07.37.22l3.12 5.35v-5.26c0-.21.1-.31.31-.31h1.07c.2 0 .3.1.3.31v7.5c0 .21-.1.31-.3.31h-1.42c-.17 0-.29-.07-.37-.21l-3.13-5.36v5.26c0 .21-.1.31-.3.31h-1.07c-.21 0-.31-.1-.31-.31v-7.5c0-.21.11-.31.31-.31z"/></svg>